# xmcd CD database file
#
# Track frame offsets:
#	150
#	15561
#	30808
#	45039
#	61695
#	72905
#	85045
#	97821
#	108937
#	122717
#
# Disc length: 1857 seconds
#
# Revision: 0
# Processed by: cddbd v1.5.2PL0 Copyright (c) Steve Scherf et al.
# Submitted via: CDex 1.70beta2
#
DISCID=60073f0a
DTITLE=Lacy J Dalton - Takin' It Easy
DYEAR=1981
DGENRE=Country
TTITLE0=Lacy J Dalton - Takin' It Easy
TTITLE1=Lacy J Dalton - Everybody Makes Mistakes
TTITLE2=Lacy J Dalton - Where Were You When I Needed You
TTITLE3=Lacy J Dalton - Come To Me
TTITLE4=Lacy J Dalton - Comes A Time
TTITLE5=Lacy J Dalton - Wild Turkey
TTITLE6=Lacy J Dalton - Golden Memories
TTITLE7=Lacy J Dalton - Let Me In The Fast Lane
TTITLE8=Lacy J Dalton - Feedin' The Fire
TTITLE9=Lacy J Dalton - Somebody Killed Dewey Jones' Daughter
EXTD=YEAR: 1981
EXTT0=
EXTT1=
EXTT2=
EXTT3=
EXTT4=
EXTT5=
EXTT6=
EXTT7=
EXTT8=
EXTT9=
PLAYORDER=
